Format : AVI
Format/Info : Audio Video Interleave
File size : 700 MiB
Duration : 1h 41mn
Overall bit rate : 964 Kbps
Writing application : VirtualDubMod 1.5.4.1 (build 2178/release)
Writing library : VirtualDubMod build 2178/release

Video
ID : 0
Format : MPEG-4 Visual
Format settings, BVOP : Yes
Format settings, QPel : No
Format settings, GMC : No warppoints
Format settings, Matrix : Default (H.263)
Muxing mode : Packed bitstream
Codec ID : DX50
Codec ID/Hint : DivX 5
Duration : 1h 41mn
Bit rate : 828 Kbps
Width : 720 pixels
Height : 384 pixels
Display aspect ratio : 1.875
Frame rate : 25.000 fps
Resolution : 24 bits
Colorimetry : 4:2:0
Scan type : Progressive
Bits/(Pixel*Frame) : 0.120
Stream size : 602 MiB (86%)
Writing library : DivX 6.8.4

Audio
ID : 1
Format : MPEG Audio
Format version : Version 1
Format profile : Layer 3
Codec ID : 55
Codec ID/Hint : MP3
Duration : 1h 41mn
Bit rate mode : Constant
Bit rate : 128 Kbps
Channel(s) : 2 channels
Sampling rate : 48.0 KHz
Resolution : 16 bits
Stream size : 93.0 MiB (13%)
Alignment : Aligned on interleaves
Interleave, duration : 80 ms (2.00 video frames)
Interleave, preload duration : 504 ms
Writing library : LAME3.98r
Encoding settings : -m j -V 4 -q 2 -lowpass 17 -b 128
Language : English

Starring
Martin Freeman
Ashley Jensen
Jason Watkins
Marc Wootton

Mr Maddens (Martin Freeman) is a "frustrated, under-achieving primary school teacher".[1] Every year Maddens' school competes with a local private school to see who can produce the best nativity play, Maddens' school always coming second to Gordon Shakespeare's (Jason Watkins) private school.

Maddens lies to Shakespeare about how a Hollywood producer, his ex-girlfriend Jennifer Lore (Ashley Jensen), will be turning his production into a Hollywood film starring his pupils. Mr. Poppy (Marc Wootton) , an over-enthusiastic classroom assistant, spreads the rumour, and soon Mr. Maddens finds his lie is out of control. He even travels to America to try and persuade his ex-girlfriend to visit, and discovers she is a receptionist and not a film producer and is unsuccessful in his Hollywood aim.
 
http://www.imdb.com/title/tt1242447/news

screens
 
http://img442.imageshack.us/img442/1273/nativitydivxviceavisnap.jpg 
http://img231.imageshack.us/img231/1273/nativitydivxviceavisnap.jpg 
http://img227.imageshack.us/img227/1273/nativitydivxviceavisnap.jpg 
http://img148.imageshack.us/img148/1273/nativitydivxviceavisnap.jpg